<svg width="40" height="40" viewBox="0 0 40 40" fill="none" xmlns="http://www.w3.org/2000/svg">
<circle cx="20" cy="20" r="20" fill="#2489D3"/>
<path d="M14.8613 14.0371C14.2819 14.0371 13.7676 14.151 13.3184 14.3789C12.8757 14.6003 12.5013 14.9225 12.1953 15.3457C11.8958 15.7689 11.668 16.2799 11.5117 16.8789C11.3555 17.4779 11.2773 18.1517 11.2773 18.9004C11.2773 19.9095 11.401 20.7721 11.6484 21.4883C11.9023 22.1979 12.293 22.7415 12.8203 23.1191C13.3477 23.4902 14.028 23.6758 14.8613 23.6758C15.4408 23.6758 16.0202 23.6107 16.5996 23.4805C17.1855 23.3503 17.8203 23.1647 18.5039 22.9238V25.4629C17.8724 25.7233 17.2507 25.9089 16.6387 26.0195C16.0267 26.1367 15.3398 26.1953 14.5781 26.1953C13.1068 26.1953 11.8958 25.8926 10.9453 25.2871C10.0013 24.6751 9.30143 23.8223 8.8457 22.7285C8.38997 21.6283 8.16211 20.3457 8.16211 18.8809C8.16211 17.8001 8.30859 16.8105 8.60156 15.9121C8.89453 15.0137 9.32422 14.2357 9.89062 13.5781C10.457 12.9206 11.1569 12.4128 11.9902 12.0547C12.8236 11.6966 13.7806 11.5176 14.8613 11.5176C15.571 11.5176 16.2806 11.6087 16.9902 11.791C17.7064 11.9668 18.39 12.2109 19.041 12.5234L18.0645 14.9844C17.5306 14.7305 16.9935 14.5091 16.4531 14.3203C15.9128 14.1315 15.3822 14.0371 14.8613 14.0371ZM24.7734 26.1953C23.556 26.1953 22.5632 25.7201 21.7949 24.7695C21.0332 23.8125 20.6523 22.4095 20.6523 20.5605C20.6523 18.6921 21.0397 17.2793 21.8145 16.3223C22.5892 15.3587 23.6016 14.877 24.8516 14.877C25.3724 14.877 25.8314 14.9486 26.2285 15.0918C26.6257 15.235 26.9674 15.4271 27.2539 15.668C27.5469 15.9089 27.7943 16.179 27.9961 16.4785H28.0938C28.0547 16.2702 28.0059 15.9642 27.9473 15.5605C27.8952 15.1504 27.8691 14.7305 27.8691 14.3008V10.8047H30.8574V26H28.5723L27.9961 24.584H27.8691C27.6803 24.8835 27.4427 25.1569 27.1562 25.4043C26.8763 25.6452 26.541 25.8372 26.1504 25.9805C25.7598 26.1237 25.3008 26.1953 24.7734 26.1953ZM25.8184 23.8223C26.6322 23.8223 27.2051 23.5814 27.5371 23.0996C27.8757 22.6113 28.0547 21.8789 28.0742 20.9023V20.5801C28.0742 19.5189 27.9115 18.7083 27.5859 18.1484C27.2604 17.582 26.6549 17.2988 25.7695 17.2988C25.112 17.2988 24.5977 17.582 24.2266 18.1484C23.8555 18.7148 23.6699 19.5319 23.6699 20.5996C23.6699 21.6673 23.8555 22.4714 24.2266 23.0117C24.6042 23.5521 25.1348 23.8223 25.8184 23.8223Z" fill="white"/>
</svg>
